# File created by Blade
# Date/Time:  Wed Apr 08 17:12:12 2015
# Frame Rate: 120.000 fps
#------------------------------------------------------
:FULLY-SPECIFIED
:DEGREES
1316
root 7.400881 38.863829 6.877655 187.181532 -47.135166 -124.977185
Spine -24.994678 9.506476 -0.377754
Head -10.740161 13.291013 20.680718
LeftShoulder -9.153566 23.887955 18.577712
LeftArm 11.596249 40.928519 -74.278822
LeftForeArm 33.521477 -0.000000 38.981497
LeftHand -6.863643 -0.000000 -20.248817
LeftHandThumb1 -26.253704 0.000000 33.147579
RightShoulder -50.064515 -56.721523 32.147457
RightArm 37.518079 -27.099242 57.830886
RightForeArm 46.666393 -0.000000 31.773453
RightHand -9.839832 -0.000000 0.859530
RightHandThumb1 -24.326973 -0.000000 -32.862282
LeftUpLeg -69.675350 35.857814 -8.641686
LeftLeg 15.829444 -0.000000 -0.000000
LeftFoot -10.761259 13.925902 -14.365794
LeftToeBase 4.126843 -0.000000 -0.000000
RightUpLeg -28.698067 -6.439917 -32.218834
RightLeg 154.247290 -0.000000 -0.000000
RightFoot 44.337661 15.607867 18.555657
RightToeBase -9.947195 -0.000000 0.000000
1317
root 7.388031 38.855744 6.860330 186.981617 -47.457457 -124.892119
Spine -25.122392 9.558122 -0.422715
Head -10.633648 13.173787 20.775815
LeftShoulder -9.204558 23.973018 18.568844
LeftArm 11.663769 41.094583 -74.090696
LeftForeArm 33.329795 0.000000 39.142077
LeftHand -6.946893 0.000000 -20.267158
LeftHandThumb1 -26.253704 0.000000 33.147579
RightShoulder -50.174693 -56.682938 32.267833
RightArm 37.535298 -27.090807 57.843058
RightForeArm 46.614801 -0.000000 31.716771
RightHand -9.832919 0.000000 1.041787
RightHandThumb1 -24.326973 -0.000000 -32.862282
LeftUpLeg -69.915508 35.859603 -9.009978
LeftLeg 16.051068 -0.000000 -0.000000
LeftFoot -10.750382 13.343364 -14.503091
LeftToeBase 4.249942 -0.000000 -0.000000
RightUpLeg -28.848547 -6.569201 -32.130299
RightLeg 154.267055 -0.000000 -0.000000
RightFoot 44.361189 15.627432 18.665748
RightToeBase -9.805756 -0.000000 0.000000
1318
root 7.377532 38.847611 6.841843 186.697690 -47.795116 -124.754889
Spine -25.184003 9.568725 -0.394517
Head -10.559207 13.096046 20.833813
LeftShoulder -9.234707 24.027638 18.567236
LeftArm 11.639308 41.151408 -74.024401
LeftForeArm 33.275306 0.000000 39.266354
LeftHand -6.841660 -0.000000 -20.135134
LeftHandThumb1 -26.253704 0.000000 33.147579
RightShoulder -50.206862 -56.657915 32.305181
RightArm 37.549217 -27.067588 57.886410
RightForeArm 46.512603 -0.000000 31.667329
RightHand -9.842548 -0.000000 1.112747
RightHandThumb1 -24.326973 -0.000000 -32.862282
LeftUpLeg -70.176196 35.900157 -9.383898
LeftLeg 16.322313 -0.000000 -0.000000
LeftFoot -10.735836 12.664161 -14.617916
LeftToeBase 4.489169 -0.000000 -0.000000
RightUpLeg -28.966024 -6.660797 -32.008002
RightLeg 154.272180 -0.000000 -0.000000
RightFoot 44.433928 15.609343 18.858895
RightToeBase -9.695979 -0.000000 0.000000
1319
root 7.367018 38.840631 6.823182 186.435182 -48.111277 -124.606716
Spine -25.296577 9.611913 -0.378093
Head -10.460967 13.007847 20.896831
LeftShoulder -9.211200 24.025967 18.613200
LeftArm 11.552584 41.170021 -74.051219
LeftForeArm 33.265191 0.000000 39.327897
LeftHand -6.912947 0.000000 -20.277168
LeftHandThumb1 -26.253704 0.000000 33.147579
RightShoulder -50.252081 -56.625323 32.349482
RightArm 37.538583 -27.042808 57.938637
RightForeArm 46.480587 -0.000000 31.622021
RightHand -9.907398 0.000000 1.131393
RightHandThumb1 -24.326973 -0.000000 -32.862282
LeftUpLeg -70.521297 35.978522 -9.811448
LeftLeg 16.638841 -0.000000 -0.000000
LeftFoot -10.706821 11.942728 -14.711236
LeftToeBase 4.711330 -0.000000 -0.000000
RightUpLeg -29.129168 -6.716592 -31.888944
RightLeg 154.291218 -0.000000 -0.000000
RightFoot 44.418248 15.646662 19.003110
RightToeBase -9.453339 -0.000000 0.000000
1320
root 7.355240 38.831653 6.802392 186.107929 -48.463790 -124.470587
Spine -25.331817 9.590801 -0.347977
Head -10.351410 12.910851 20.986786
LeftShoulder -9.224455 24.067689 18.625979
LeftArm 11.521886 41.148252 -74.039167
LeftForeArm 33.277855 -0.000000 39.358762
LeftHand -6.820123 -0.000000 -20.218324
LeftHandThumb1 -26.253704 0.000000 33.147579
RightShoulder -50.250750 -56.624447 32.374118
RightArm 37.534420 -27.000972 57.986977
RightForeArm 46.463062 -0.000000 31.593402
RightHand -9.870950 -0.000000 1.014825
RightHandThumb1 -24.326973 -0.000000 -32.862282
LeftUpLeg -70.765679 36.012931 -10.157304
LeftLeg 16.977100 -0.000000 -0.000000
LeftFoot -10.593739 11.294443 -14.701357
LeftToeBase 4.652152 -0.000000 -0.000000
RightUpLeg -29.172573 -6.787898 -31.812988
RightLeg 154.292247 -0.000000 -0.000000
RightFoot 44.416375 15.629916 19.125592
RightToeBase -9.264889 -0.000000 0.000000
1321
root 7.342820 38.820467 6.783066 185.819387 -48.797412 -124.359145
Spine -25.399993 9.581119 -0.331610
Head -10.246777 12.867471 21.053370
LeftShoulder -9.226532 24.076221 18.637666
LeftArm 11.423914 41.133443 -74.044343
LeftForeArm 33.238051 -0.000000 39.428149
LeftHand -6.862323 -0.000000 -20.225381
LeftHandThumb1 -26.253704 0.000000 33.147579
RightShoulder -50.289084 -56.624997 32.400572
RightArm 37.573969 -26.990935 57.983065
RightForeArm 46.455332 -0.000000 31.543576
RightHand -9.825666 -0.000000 1.023745
RightHandThumb1 -24.326973 -0.000000 -32.862282
LeftUpLeg -70.957779 36.002277 -10.413891
LeftLeg 17.306946 -0.000000 -0.000000
LeftFoot -10.475930 10.776490 -14.653444
LeftToeBase 4.454309 -0.000000 -0.000000
RightUpLeg -29.264287 -6.863519 -31.761062
RightLeg 154.293571 -0.000000 -0.000000
RightFoot 44.404053 15.612494 19.115461
RightToeBase -9.305432 -0.000000 0.000000
1322
root 7.328150 38.803832 6.762418 185.444446 -49.142797 -124.267578
Spine -25.348992 9.574366 -0.319871
Head -10.188766 12.825271 21.115062
LeftShoulder -9.228504 24.123301 18.640516
LeftArm 11.446753 41.134534 -73.985813
LeftForeArm 33.270826 -0.000000 39.424570
LeftHand -6.846020 -0.000000 -20.102257
LeftHandThumb1 -26.253704 0.000000 33.147579
RightShoulder -50.274836 -56.592778 32.378488
RightArm 37.550667 -26.960973 58.022825
RightForeArm 46.420591 -0.000000 31.512358
RightHand -9.794396 -0.000000 1.151797
RightHandThumb1 -24.326973 -0.000000 -32.862282
LeftUpLeg -70.910161 35.919093 -10.453239
LeftLeg 17.619528 -0.000000 -0.000000
LeftFoot -10.435784 10.407208 -14.569253
LeftToeBase 4.333688 -0.000000 -0.000000
RightUpLeg -29.282420 -7.098254 -31.643684
RightLeg 154.266375 -0.000000 -0.000000
RightFoot 44.369409 15.336880 18.702680
RightToeBase -9.922534 -0.000000 0.000000
